<svg width="47" height="48" viewBox="0 0 47 48" fill="none" xmlns="http://www.w3.org/2000/svg">
<path d="M46.85 39.67C46.85 43.86 43.42 47.29 39.23 47.29H7.66003C3.47003 47.29 0.0400391 43.86 0.0400391 39.67V8.10001C0.0400391 3.91001 3.47003 0.480011 7.66003 0.480011H39.23C43.42 0.480011 46.85 3.91001 46.85 8.10001V39.67Z" fill="url(#paint0_radial_6_224)"/>
<path d="M31.7501 43.15H15.1501C9.10005 43.15 4.18005 38.23 4.18005 32.18V15.58C4.18005 9.53002 9.10005 4.61002 15.1501 4.61002H31.7501C37.8001 4.61002 42.7201 9.53002 42.7201 15.58V32.18C42.7201 38.23 37.8001 43.15 31.7501 43.15ZM15.1401 7.91002C10.9101 7.91002 7.47006 11.35 7.47006 15.58V32.18C7.47006 36.41 10.9101 39.85 15.1401 39.85H31.7401C35.9701 39.85 39.4101 36.41 39.4101 32.18V15.58C39.4101 11.35 35.9701 7.91002 31.7401 7.91002H15.1401Z" fill="white"/>
<path d="M23.4501 33.75C18.0101 33.75 13.5801 29.32 13.5801 23.88C13.5801 18.44 18.0101 14.01 23.4501 14.01C28.8901 14.01 33.3201 18.44 33.3201 23.88C33.3101 29.32 28.8901 33.75 23.4501 33.75ZM23.4501 17.32C19.8301 17.32 16.8801 20.27 16.8801 23.89C16.8801 27.51 19.8301 30.46 23.4501 30.46C27.0701 30.46 30.0201 27.51 30.0201 23.89C30.0101 20.26 27.0701 17.32 23.4501 17.32Z" fill="white"/>
<path d="M36.11 13.45C36.11 14.76 35.0501 15.82 33.7401 15.82C32.4301 15.82 31.3701 14.76 31.3701 13.45C31.3701 12.14 32.4301 11.08 33.7401 11.08C35.0501 11.08 36.11 12.14 36.11 13.45Z" fill="white"/>
<defs>
<radialGradient id="paint0_radial_6_224" cx="0" cy="0" r="1" gradientUnits="userSpaceOnUse" gradientTransform="translate(7.59104 46.6601) scale(56.4934)">
<stop stop-color="#FEC053"/>
<stop offset="0.3273" stop-color="#EE2740"/>
<stop offset="0.6485" stop-color="#AC3D96"/>
<stop offset="1" stop-color="#5755A5"/>
</radialGradient>
</defs>
</svg>
