<svg width="48" height="46" viewBox="0 0 48 46" fill="none" xmlns="http://www.w3.org/2000/svg">
<path d="M23.92 45.78C18.54 45.78 13.17 45.79 7.79 45.78C5.28 45.77 3.23 44.87 1.69 42.79C0.819995 41.61 0.439995 40.34 0.439995 38.94C0.419995 28.43 0.429985 17.91 0.429985 7.4C0.429985 6.2 0.669989 5.03 1.33999 4.02C2.83999 1.76 4.95 0.569998 7.69 0.569998C18.24 0.569998 28.79 0.579998 39.33 0.559998C41 0.559998 42.6 0.709998 44.08 1.57C44.22 1.65 44.38 1.72 44.51 1.82C46.38 3.27 47.51 5.11 47.51 7.55C47.5 17.97 47.51 28.39 47.51 38.82C47.51 41.28 46.39 43.18 44.44 44.56C43.2 45.44 41.75 45.79 40.21 45.79C34.78 45.77 29.35 45.78 23.92 45.78Z" fill="#43B64A"/>
<path d="M18.5 28.17C18.5 28.85 18.48 29.54 18.49 30.22C18.49 30.51 18.5 30.68 18.1 30.62C16.97 30.46 15.8301 30.39 14.7001 30.21C13.8801 30.08 13.1601 30.27 12.4801 30.67C11.2901 31.36 10.12 32.09 8.86003 32.84C9.09003 31.72 9.27005 30.67 9.57005 29.64C9.82005 28.8 9.70005 28.44 8.98005 27.93C7.11005 26.6 5.59005 25 4.54005 22.9C3.15005 20.14 3.21005 17.36 4.29005 14.59C4.87005 13.1 5.67004 11.66 6.87004 10.54C8.61004 8.91 10.6201 7.76 12.9201 7.05C14.6501 6.52 16.39 6.25 18.19 6.29C20.12 6.33 21.99 6.71 23.78 7.44C26.14 8.4 28.11 9.85 29.72 11.87C30.96 13.43 31.57 15.17 31.88 17.08C31.93 17.36 31.83 17.42 31.57 17.44C30.2 17.56 28.8301 17.75 27.5101 18.17C25.4601 18.81 23.65 19.84 22.07 21.31C20.33 22.93 19.2101 24.88 18.7601 27.21C18.7301 27.37 18.7201 27.54 18.7001 27.7C18.5601 27.83 18.63 28.05 18.5 28.17Z" fill="white"/>
<path d="M44.45 29.6C44.26 31.82 43.3 34.06 41.42 35.86C41.09 36.17 40.71 36.43 40.4 36.77C39.8 37.44 39.68 38.18 40.06 39.01C40.2 39.32 40.53 39.71 40.26 39.96C40.04 40.16 39.69 39.76 39.39 39.64C39.07 39.51 38.75 39.35 38.44 39.19C37.24 38.57 36.04 38.71 34.8 39.07C32.46 39.74 30.13 39.58 27.85 38.82C25.18 37.93 23.12 36.28 21.51 33.94C19.64 31.23 19.6 27.3 21.22 24.65C22.95 21.81 25.5 19.98 28.73 19.19C31.9 18.42 35 18.65 38 20.01C40.98 21.36 43.01 23.51 44.02 26.66C44.28 27.52 44.41 28.36 44.45 29.6Z" fill="white"/>
<path d="M18.5 28.17C18.48 27.98 18.44 27.78 18.7 27.71C18.71 27.9 18.76 28.1 18.5 28.17Z" fill="#AAD591"/>
<path d="M12.75 14.29C13.68 14.3 14.46 15.02 14.46 15.88C14.46 16.8 13.67 17.53 12.67 17.51C11.73 17.49 11.04 16.79 11.05 15.86C11.07 14.94 11.79 14.28 12.75 14.29Z" fill="#43B64A"/>
<path d="M23.55 14.29C24.55 14.28 25.29 14.94 25.32 15.87C25.35 16.79 24.57 17.52 23.56 17.52C22.64 17.52 21.92 16.84 21.91 15.95C21.91 15.03 22.63 14.3 23.55 14.29Z" fill="#43B64A"/>
<path d="M26.75 27.41C25.98 27.41 25.36 26.8 25.37 26.07C25.38 25.34 26.02 24.74 26.77 24.73C27.56 24.72 28.22 25.34 28.21 26.09C28.21 26.84 27.57 27.41 26.75 27.41Z" fill="#44B64A"/>
<path d="M35.58 27.41C34.76 27.41 34.21 26.88 34.21 26.08C34.21 25.3 34.79 24.73 35.58 24.72C36.35 24.72 36.97 25.31 36.98 26.07C36.98 26.82 36.37 27.41 35.58 27.41Z" fill="#44B64A"/>
</svg>
