<svg width="52" height="51" viewBox="0 0 52 51" fill="none" xmlns="http://www.w3.org/2000/svg">
<path d="M51.62 25.79C51.62 30.54 51.62 35.28 51.63 40.03C51.63 40.34 51.54 40.42 51.24 40.41C44.48 40.4 37.72 40.4 30.96 40.4C30.55 40.4 30.55 40.4 30.55 40.81C30.55 43.99 30.55 47.17 30.56 50.35C30.56 50.66 30.47 50.71 30.19 50.66C23.46 49.49 16.73 48.33 10 47.17C7.08001 46.67 4.16001 46.16 1.24001 45.66C1.03001 45.62 0.930011 45.56 0.960011 45.34C0.970011 45.29 0.960011 45.23 0.960011 45.18C0.960011 32.13 0.960012 19.07 0.950012 6.02C0.950012 5.67 1.05001 5.56 1.39001 5.51C7.03001 4.55 12.66 3.58 18.29 2.6C22.3 1.91 26.3 1.21 30.31 0.510002C30.58 0.460002 30.55 0.590002 30.55 0.760002C30.55 3.31 30.55 5.87 30.55 8.42C30.55 9.14 30.55 9.86 30.55 10.58C30.55 11.14 30.55 11.14 31.1 11.14C37.79 11.14 44.47 11.14 51.16 11.14C51.68 11.14 51.63 11.08 51.63 11.62C51.62 16.34 51.62 21.07 51.62 25.79Z" fill="#246CB5"/>
<path d="M49.17 18.07C49.17 18.2 49.17 18.3 49.17 18.41C49.17 24.64 49.17 30.87 49.18 37.1C49.18 37.4 49.13 37.51 48.79 37.51C42.84 37.5 36.88 37.5 30.93 37.51C30.63 37.51 30.54 37.44 30.54 37.13C30.55 32.6 30.55 28.06 30.55 23.53C30.55 23.44 30.55 23.34 30.55 23.23C30.7 23.24 30.76 23.35 30.84 23.42C32.62 25.19 34.39 26.97 36.17 28.74C36.93 29.51 37.66 29.51 38.42 28.74C41.91 25.25 45.4 21.76 48.89 18.27C48.96 18.19 49.02 18.08 49.17 18.07Z" fill="white"/>
<path d="M23.85 25.32C23.85 27.29 23.59 29.12 22.81 30.85C21.22 34.39 18.01 35.86 14.34 35.11C11.39 34.51 9.52 32.63 8.42 29.92C7.71 28.17 7.43 26.32 7.53 24.44C7.65 22.19 8.15 20.03 9.55 18.18C11.33 15.82 13.75 14.89 16.64 15.23C19.56 15.58 21.49 17.29 22.72 19.87C23.54 21.62 23.86 23.48 23.85 25.32Z" fill="white"/>
<path d="M39.87 14C42.85 14 45.82 14 48.8 13.99C49.08 13.99 49.18 14.04 49.18 14.35C49.18 14.66 49.08 14.88 48.86 15.09C45.07 18.87 41.29 22.65 37.51 26.44C37.33 26.62 37.23 26.64 37.04 26.45C34.95 24.35 32.85 22.25 30.75 20.16C30.6 20.01 30.53 19.85 30.53 19.63C30.54 17.87 30.54 16.11 30.53 14.36C30.53 14.06 30.62 13.99 30.91 14C33.9 14 36.89 14 39.87 14Z" fill="white"/>
<path d="M11.18 25.08C11.19 23.57 11.38 22.1 12.09 20.74C12.56 19.85 13.21 19.14 14.2 18.83C15.6 18.4 16.95 18.87 17.88 20.1C18.61 21.06 18.98 22.17 19.17 23.34C19.47 25.19 19.41 27.01 18.82 28.8C18.53 29.69 18.09 30.5 17.35 31.1C15.97 32.21 13.92 31.92 12.71 30.44C11.81 29.34 11.44 28.04 11.26 26.67C11.2 26.14 11.18 25.61 11.18 25.08Z" fill="#246CB6"/>
</svg>
