<svg width="48" height="48" viewBox="0 0 48 48" fill="none" xmlns="http://www.w3.org/2000/svg">
<path d="M23.65 0.5C28.18 0.5 32.71 0.5 37.24 0.5C42.22 0.5 46.15 3.74 47.1 8.62C47.21 9.18 47.25 9.75 47.25 10.32C47.25 19.48 47.25 28.63 47.25 37.79C47.25 42.74 43.93 46.71 39.07 47.6C38.54 47.7 38.01 47.73 37.47 47.73C28.25 47.73 19.02 47.73 9.79999 47.73C4.40999 47.73 0.0299865 43.37 0.0199865 37.98C-1.34893e-05 28.74 -1.34888e-05 19.5 0.00998651 10.27C0.00998651 4.85 4.38999 0.5 9.81999 0.5C14.43 0.5 19.04 0.5 23.65 0.5Z" fill="#7E52A0"/>
<path d="M14.27 43.63C14.27 41.21 14.26 38.88 14.28 36.55C14.28 36.13 14.15 35.88 13.77 35.73C13.42 35.59 13.1 35.4 12.75 35.26C9.48999 33.95 7.56999 31.49 6.66999 28.16C5.85999 25.19 5.77999 22.15 5.91999 19.09C6.00999 17.23 6.24999 15.4 6.67999 13.59C7.54999 9.9 9.93999 7.57 13.35 6.17C15.72 5.2 18.21 4.76 20.76 4.59C24.58 4.34 28.34 4.66 32.05 5.59C33.59 5.98 35.05 6.55 36.39 7.43C38.7 8.95 39.92 11.18 40.45 13.81C41.34 18.22 41.5 22.66 40.59 27.1C40.4 28.03 40.11 28.92 39.78 29.81C38.71 32.75 36.6 34.57 33.66 35.52C31.56 36.21 29.4 36.57 27.21 36.78C25.49 36.95 23.77 37.05 22.04 36.9C21.34 36.84 20.72 37.07 20.2 37.54C18.65 38.96 17.28 40.56 15.93 42.17C15.48 42.71 15.05 43.29 14.27 43.63Z" fill="white"/>
<path d="M29.76 33.08C29.36 33.08 28.92 32.95 28.5 32.78C21.69 29.87 16.46 25.25 13.16 18.55C12.67 17.56 12.15 16.58 11.92 15.48C11.43 13.15 13.11 10.88 15.48 10.68C16.01 10.64 16.48 10.8 16.87 11.17C18.26 12.48 19.39 13.98 20.18 15.72C20.54 16.51 20.38 17.11 19.74 17.7C19.58 17.84 19.41 17.97 19.24 18.09C18.16 18.87 17.94 19.64 18.47 20.89C19.35 22.99 20.82 24.58 22.78 25.72C23.33 26.04 23.88 26.35 24.5 26.52C25.19 26.71 25.75 26.52 26.2 25.98C26.26 25.91 26.32 25.83 26.38 25.75C27.38 24.36 28.46 24.13 29.91 25.05C31.07 25.78 32.17 26.6 33.21 27.48C34.2 28.32 34.36 29.09 33.73 30.24C33 31.63 31.88 32.58 30.35 33C30.27 33.02 30.19 33.04 30.11 33.06C30.02 33.07 29.92 33.07 29.76 33.08Z" fill="#7E52A0"/>
<path d="M33.9 20.49C33.9 20.78 33.91 21.08 33.9 21.37C33.88 21.75 33.7 22 33.3 21.98C32.93 21.96 32.77 21.74 32.75 21.37C32.67 20.02 32.41 18.69 31.96 17.41C30.9 14.41 28.69 12.73 25.69 11.96C24.95 11.77 24.2 11.61 23.44 11.55C23.09 11.52 22.73 11.47 22.77 10.97C22.81 10.5 23.09 10.37 23.5 10.39C27.91 10.51 30.98 12.7 32.95 16.55C33.58 17.77 33.88 19.1 33.9 20.49Z" fill="#7E52A0"/>
<path d="M31.13 19.75C31.13 19.95 31.12 20.14 31.13 20.34C31.15 20.73 30.94 20.92 30.58 20.93C30.22 20.94 30.05 20.74 30.02 20.4C29.94 19.62 29.79 18.86 29.56 18.11C29.08 16.52 28.06 15.44 26.5 14.88C25.78 14.62 25.05 14.4 24.29 14.3C23.76 14.23 23.54 14 23.58 13.61C23.63 13.16 23.93 13.01 24.49 13.07C26.85 13.33 28.76 14.37 30.1 16.37C30.79 17.37 31.16 18.5 31.13 19.75Z" fill="#7E52A0"/>
<path d="M28.55 19.34C28.54 19.4 28.51 19.57 28.46 19.74C28.4 19.95 28.24 20.05 28.02 20.07C27.79 20.1 27.61 20.01 27.48 19.82C27.36 19.65 27.37 19.45 27.34 19.26C27.14 17.98 26.42 17.22 25.13 17.01C25.02 16.99 24.91 16.96 24.8 16.93C24.56 16.86 24.38 16.72 24.39 16.45C24.41 16.18 24.53 15.94 24.82 15.86C25.12 15.78 25.43 15.79 25.74 15.85C27.16 16.1 28.56 17.78 28.55 19.34Z" fill="#7E52A0"/>
</svg>
