<svg width="48" height="48" viewBox="0 0 48 48" fill="none" xmlns="http://www.w3.org/2000/svg">
<path d="M24.3 47.64C19.41 47.64 14.51 47.65 9.62 47.64C5.29999 47.62 1.78 44.78 0.869995 40.6C0.739995 39.99 0.679993 39.37 0.679993 38.74C0.689993 29.08 0.699991 19.41 0.709991 9.75C0.719991 4.53 4.58 0.690002 9.8 0.690002C19.38 0.690002 28.96 0.700002 38.54 0.720002C43.84 0.730002 47.67 4.57 47.66 9.87C47.65 19.47 47.65 29.07 47.63 38.67C47.62 43.04 44.8 46.56 40.59 47.48C39.94 47.62 39.28 47.67 38.61 47.67C33.84 47.66 29.07 47.67 24.3 47.67C24.3 47.66 24.3 47.65 24.3 47.64Z" fill="#6BBD45"/>
<path d="M41.44 22.14C41.42 25.46 40.05 28.21 37.89 30.64C35.01 33.88 31.5 36.33 27.9 38.68C26.91 39.33 25.9 39.95 24.83 40.47C24.48 40.64 24.11 40.81 23.73 40.91C22.65 41.17 22.03 40.59 22.19 39.48C22.27 38.9 22.38 38.33 22.48 37.76C22.68 36.57 22.44 36.23 21.22 36.05C17.48 35.48 14.08 34.12 11.27 31.52C8.27 28.74 6.64001 25.34 6.98001 21.19C7.30001 17.38 9.21001 14.39 12.17 12.08C16.19 8.94 20.82 7.78 25.87 8.16C29.63 8.44 33.06 9.65 36.05 11.97C38.99 14.26 40.9 17.18 41.34 20.96C41.4 21.35 41.41 21.75 41.44 22.14Z" fill="white"/>
<path d="M24.29 22.22C24.29 23.37 24.29 24.34 24.29 25.31C24.29 25.52 24.3 25.73 24.26 25.93C24.15 26.48 23.66 26.84 23.13 26.8C22.58 26.76 22.17 26.35 22.17 25.77C22.15 23.54 22.16 21.32 22.16 19.09C22.16 18.59 22.4 18.24 22.85 18.09C23.35 17.93 23.79 18.07 24.11 18.51C24.99 19.72 25.88 20.92 26.77 22.13C26.85 22.24 26.94 22.36 27.14 22.62C27.14 21.55 27.14 20.66 27.14 19.76C27.14 19.53 27.13 19.3 27.14 19.07C27.18 18.45 27.57 18.05 28.16 18.04C28.74 18.03 29.2 18.41 29.25 19.01C29.29 19.48 29.27 19.97 29.27 20.44C29.27 22.08 29.27 23.73 29.27 25.37C29.27 26.17 29.03 26.62 28.48 26.76C27.85 26.93 27.48 26.58 27.13 26.11C26.24 24.86 25.32 23.62 24.29 22.22Z" fill="#6BBE45"/>
<path d="M32.74 26.8C32.22 26.8 31.7 26.81 31.18 26.8C30.51 26.78 30.07 26.37 30.07 25.7C30.05 23.49 30.05 21.29 30.07 19.08C30.08 18.44 30.5 18.04 31.15 18.03C32.25 18.01 33.36 18.01 34.46 18.03C35.07 18.04 35.5 18.46 35.54 19.03C35.57 19.59 35.13 20.11 34.51 20.15C33.89 20.19 33.26 20.2 32.64 20.15C32.11 20.11 32.2 20.44 32.2 20.75C32.19 21.07 32.14 21.38 32.65 21.34C33.21 21.3 33.77 21.32 34.34 21.33C35.06 21.35 35.55 21.79 35.55 22.41C35.55 23.04 35.08 23.45 34.34 23.46C33.78 23.47 33.21 23.49 32.65 23.45C32.07 23.41 32.23 23.81 32.2 24.11C32.17 24.46 32.19 24.71 32.67 24.67C33.25 24.63 33.84 24.65 34.42 24.66C35.08 24.67 35.56 25.15 35.55 25.74C35.53 26.31 35.07 26.76 34.44 26.78C33.86 26.82 33.3 26.8 32.74 26.8Z" fill="#6BBE45"/>
<path d="M13.23 22.43C13.23 21.41 13.22 20.39 13.23 19.37C13.24 18.5 13.6 18.04 14.28 18.03C14.98 18.02 15.37 18.48 15.38 19.39C15.39 20.97 15.4 22.55 15.37 24.13C15.36 24.57 15.49 24.71 15.93 24.68C16.49 24.64 17.05 24.66 17.61 24.68C18.26 24.7 18.68 25.12 18.68 25.73C18.68 26.33 18.25 26.79 17.62 26.8C16.52 26.82 15.41 26.82 14.31 26.8C13.63 26.79 13.24 26.36 13.23 25.61C13.21 24.55 13.23 23.49 13.23 22.43Z" fill="#6CBE45"/>
<path d="M19.13 22.4C19.13 21.34 19.12 20.28 19.13 19.21C19.14 18.45 19.54 18.02 20.19 18.02C20.83 18.02 21.25 18.47 21.26 19.22C21.27 21.34 21.27 23.47 21.26 25.59C21.26 26.32 20.8 26.79 20.18 26.79C19.54 26.79 19.14 26.33 19.13 25.58C19.12 24.53 19.13 23.47 19.13 22.4Z" fill="#6CBE45"/>
</svg>
