<svg width="48" height="48" viewBox="0 0 48 48" fill="none" xmlns="http://www.w3.org/2000/svg">
<path d="M24.34 0.580009C31.28 0.580009 38.21 0.580009 45.15 0.580009C46.48 0.580009 47.52 1.38001 47.8 2.62001C47.85 2.85001 47.87 3.08001 47.87 3.31001C47.87 17.18 47.87 31.05 47.87 44.92C47.87 46.54 46.74 47.66 45.12 47.66C41.11 47.66 37.11 47.66 33.1 47.67C32.86 47.67 32.79 47.62 32.79 47.36C32.8 41.45 32.8 35.54 32.79 29.63C32.79 29.4 32.84 29.33 33.08 29.33C35.06 29.34 37.03 29.33 39.01 29.34C39.22 29.34 39.3 29.29 39.33 29.07C39.65 27.05 39.98 25.03 40.32 23.02C40.36 22.77 40.21 22.81 40.07 22.81C37.74 22.81 35.42 22.81 33.09 22.82C32.84 22.82 32.78 22.76 32.78 22.51C32.79 20.88 32.78 19.26 32.79 17.63C32.79 17.05 32.85 16.48 33.06 15.94C33.4 15.05 34.1 14.61 35 14.42C35.46 14.32 35.92 14.3 36.39 14.3C37.73 14.3 39.07 14.3 40.41 14.31C40.61 14.31 40.66 14.27 40.66 14.06C40.65 11.95 40.65 9.84001 40.66 7.73001C40.66 7.54001 40.61 7.48 40.41 7.45C38.54 7.22 36.66 7.08001 34.77 7.14001C30.56 7.26001 27.48 9.83001 26.58 13.94C26.38 14.87 26.29 15.82 26.29 16.77C26.29 18.69 26.29 20.62 26.29 22.54C26.29 22.77 26.23 22.82 26.01 22.82C24.02 22.81 22.02 22.82 20.03 22.81C19.81 22.81 19.74 22.85 19.74 23.09C19.75 25.08 19.75 27.06 19.74 29.05C19.74 29.28 19.78 29.35 20.03 29.35C22.02 29.34 24.02 29.35 26.01 29.34C26.24 29.34 26.29 29.4 26.29 29.62C26.28 35.54 26.28 41.46 26.29 47.38C26.29 47.62 26.22 47.67 25.99 47.67C18.49 47.66 10.99 47.67 3.48001 47.66C1.90001 47.66 0.76001 46.53 0.76001 44.94C0.76001 31.06 0.76001 17.18 0.76001 3.30001C0.76001 1.69001 1.89002 0.570007 3.52002 0.570007C10.47 0.580007 17.41 0.580009 24.34 0.580009Z" fill="#3C599F"/>
</svg>
