<svg width="55" height="49" viewBox="0 0 55 49" fill="none" xmlns="http://www.w3.org/2000/svg">
<path d="M31.43 5.70001C33.15 7.51001 34.55 9.54002 35.66 11.78C35.77 11.99 35.75 12.05 35.52 12.13C33.59 12.72 31.87 13.7 30.38 15.06C30.24 15.18 30.11 15.2 29.95 15.2C28.77 15.2 27.6 15.21 26.42 15.19C26.17 15.19 26.1 15.25 26.1 15.5C26.11 21.5 26.11 27.51 26.1 33.51C26.1 33.75 26.15 33.82 26.4 33.81C27.23 33.79 28.05 33.8 28.88 33.8C28.99 33.8 29.1 33.78 29.19 33.9C29.98 34.82 30.86 35.63 31.94 36.36C31.75 36.36 31.65 36.36 31.55 36.36C29.82 36.36 28.09 36.36 26.36 36.36C26.16 36.36 26.09 36.4 26.09 36.62C26.1 39.23 26.1 41.84 26.1 44.45C26.1 44.48 26.11 44.51 26.12 44.6C26.33 44.41 26.52 44.25 26.71 44.09C28.73 42.28 30.61 40.35 32.08 38.05C32.28 37.73 32.47 37.4 32.65 37.06C32.73 36.9 32.8 36.89 32.95 36.97C33.69 37.39 34.46 37.72 35.27 37.98C35.44 38.03 35.46 38.08 35.38 38.24C34.23 40.41 32.77 42.32 30.87 43.89C30.79 43.96 30.71 44.02 30.62 44.1C30.77 44.17 30.88 44.08 30.99 44.04C34.15 42.97 36.87 41.23 39.19 38.83C39.31 38.71 39.42 38.65 39.6 38.65C40.93 38.67 42.23 38.45 43.51 38.07C43.58 38.05 43.64 37.99 43.76 38.06C41.75 40.91 39.25 43.21 36.23 44.94C31.7 47.53 26.83 48.52 21.65 47.91C10.4 46.59 1.96 37.47 0.979998 26.74C-0.120002 14.67 7.76 4.65001 18.06 1.79001C28.7 -1.16999 39.51 3.52001 44.79 12.54C44.68 12.59 44.59 12.51 44.5 12.47C43.12 11.93 41.69 11.62 40.21 11.55C40.05 11.54 39.97 11.47 39.87 11.36C37.62 8.79002 34.9 6.88002 31.7 5.66002C31.66 5.65002 31.62 5.64001 31.58 5.62001C31.49 5.60001 31.4 5.54001 31.43 5.70001Z" fill="#103245"/>
<path d="M39.7 13.69C45.22 13.69 49.93 17.46 51.02 22.74C51.75 26.28 50.98 29.51 48.74 32.36C48.57 32.57 48.59 32.69 48.72 32.9C50.36 35.46 52.01 38.01 53.62 40.59C54 41.19 54.27 41.89 53.89 42.6C53.55 43.22 53.07 43.74 52.51 44.17C51.94 44.61 51.27 44.6 50.59 44.5C50.42 44.47 50.26 44.43 50.1 44.38C49.4 44.19 48.86 43.84 48.45 43.17C47 40.83 45.47 38.54 43.99 36.22C43.85 36 43.74 35.96 43.49 36.05C36.82 38.34 29.63 34.07 28.45 27.11C27.4 20.89 31.53 14.99 37.74 13.86C38.42 13.73 39.11 13.67 39.7 13.69Z" fill="#EB6348"/>
<path d="M31.43 5.70001C31.35 5.66001 31.3 5.60002 31.26 5.52002C31.38 5.52002 31.48 5.55002 31.57 5.63002C31.51 5.64002 31.45 5.63001 31.43 5.70001Z" fill="#B1BBC1"/>
<path d="M18.14 25.73C19.55 25.73 20.96 25.73 22.37 25.73C22.6 25.73 22.7 25.77 22.69 26.03C22.68 28.52 22.68 31.01 22.69 33.5C22.69 33.74 22.64 33.82 22.38 33.82C20.04 33.81 17.7 33.81 15.35 33.82C15.14 33.82 15.03 33.77 14.97 33.56C14.2 31.1 13.72 28.58 13.6 26C13.59 25.76 13.67 25.73 13.88 25.73C15.3 25.73 16.72 25.73 18.14 25.73Z" fill="white"/>
<path d="M18.13 23.1C16.72 23.1 15.31 23.1 13.9 23.1C13.68 23.1 13.61 23.06 13.63 22.82C13.81 20.34 14.3 17.92 15.08 15.56C15.17 15.29 15.27 15.18 15.58 15.19C17.83 15.21 20.08 15.2 22.32 15.19C22.6 15.19 22.7 15.24 22.7 15.55C22.69 17.96 22.69 20.36 22.7 22.77C22.7 23.03 22.64 23.11 22.37 23.11C20.95 23.1 19.54 23.1 18.13 23.1Z" fill="white"/>
<path d="M11.81 33.81C10.98 33.81 10.14 33.81 9.31001 33.81C8.36001 33.81 7.40001 33.81 6.45001 33.81C6.28001 33.81 6.19001 33.76 6.11001 33.6C5.23001 31.77 4.63002 29.85 4.33002 27.84C4.24002 27.23 4.18002 26.62 4.13002 26.01C4.11002 25.76 4.19001 25.7 4.43001 25.71C6.34001 25.72 8.25001 25.72 10.15 25.71C10.4 25.71 10.47 25.78 10.48 26.02C10.61 28.41 11 30.77 11.64 33.08C11.7 33.3 11.76 33.53 11.82 33.75C11.82 33.77 11.82 33.78 11.81 33.81Z" fill="white"/>
<path d="M7.31001 23.1C6.33001 23.1 5.36002 23.09 4.38002 23.1C4.17002 23.1 4.14002 23.04 4.16002 22.84C4.41002 20.25 5.12001 17.78 6.29001 15.46C6.40001 15.25 6.51001 15.18 6.75001 15.18C8.37001 15.19 9.99001 15.19 11.62 15.18C11.88 15.18 11.96 15.19 11.86 15.5C11.17 17.62 10.74 19.79 10.55 22.01C10.53 22.26 10.49 22.52 10.49 22.77C10.49 23.01 10.42 23.1 10.16 23.09C9.21002 23.09 8.26001 23.1 7.31001 23.1Z" fill="white"/>
<path d="M32.88 12.88C30.66 12.88 28.49 12.88 26.32 12.88C26.13 12.88 26.09 12.82 26.09 12.65C26.1 9.97999 26.1 7.30999 26.09 4.63999C26.09 4.44999 26.15 4.40999 26.33 4.41999C26.58 4.43999 26.79 4.50999 26.98 4.69999C29.09 6.76999 30.92 9.03999 32.31 11.65C32.49 11.99 32.65 12.35 32.82 12.71C32.84 12.75 32.85 12.8 32.88 12.88Z" fill="white"/>
<path d="M22.69 8.66004C22.69 9.98004 22.68 11.29 22.7 12.61C22.7 12.84 22.64 12.89 22.42 12.89C20.42 12.88 18.41 12.88 16.41 12.89C16.13 12.89 16.15 12.81 16.24 12.61C17.08 10.77 18.2 9.10004 19.46 7.53004C20.27 6.52004 21.15 5.58003 22.08 4.67003C22.15 4.60003 22.22 4.53004 22.3 4.49004C22.57 4.34004 22.7 4.42004 22.7 4.72004C22.69 6.03004 22.69 7.35004 22.69 8.66004Z" fill="white"/>
<path d="M22.66 44.41C20.03 42.04 17.58 39.6 16.02 36.36C16.65 36.36 17.22 36.36 17.79 36.36C19.34 36.36 20.89 36.36 22.44 36.36C22.61 36.36 22.71 36.37 22.7 36.59C22.69 39.15 22.69 41.7 22.69 44.26C22.69 44.29 22.68 44.32 22.66 44.41Z" fill="white"/>
<path d="M18.39 44.2C13.99 42.78 10.45 40.19 7.72 36.37C7.88 36.37 7.98 36.37 8.08 36.37C9.52 36.37 10.96 36.38 12.4 36.36C12.67 36.36 12.8 36.43 12.91 36.68C13.98 39.17 15.42 41.39 17.42 43.25C17.59 43.41 17.77 43.56 17.94 43.71C18.11 43.85 18.28 43.99 18.44 44.13C18.43 44.16 18.41 44.18 18.39 44.2Z" fill="white"/>
<path d="M7.85999 12.88C10.43 9.38002 13.69 6.92001 17.73 5.51001C17.19 6.13001 16.64 6.74001 16.13 7.39001C14.86 9.00001 13.82 10.75 12.98 12.62C12.89 12.82 12.79 12.9 12.56 12.9C11.02 12.88 9.46999 12.88 7.85999 12.88Z" fill="white"/>
<path d="M39.84 33.06C35.51 33.06 32.01 29.55 32 25.21C32 20.81 35.61 17.24 40.05 17.34C44.34 17.44 47.78 21 47.73 25.32C47.69 29.58 44.18 33.06 39.84 33.06Z" fill="white"/>
</svg>
