<svg width="48" height="48" viewBox="0 0 48 48" fill="none" xmlns="http://www.w3.org/2000/svg">
<path d="M24.11 24.27C24.05 24.18 24.1101 24.08 24.0701 23.99C24.1401 24.07 24.1 24.18 24.11 24.27Z" fill="#2297C9"/>
<path d="M24.12 23.99C24.08 24.08 24.13 24.18 24.08 24.27C24.08 24.18 24.04 24.07 24.12 23.99Z" fill="#2297C9"/>
<path d="M27.86 23.51C27.67 24.46 27.47 25.42 27.27 26.38C27.16 26.32 27.22 26.19 27.24 26.1C27.37 25.47 27.51 24.83 27.65 24.2C27.73 23.81 27.82 23.41 27.81 23C27.78 22.22 27.25 21.81 26.49 22.04C25.77 22.25 25.1 22.58 24.39 22.85C23.13 23.33 21.87 23.81 20.61 24.31C20.52 24.35 20.41 24.38 20.31 24.35C20.3 24.35 20.28 24.35 20.27 24.34C20.29 24.33 20.31 24.32 20.33 24.31C21.02 24.05 21.72 23.79 22.41 23.53C23.73 23.02 25.04 22.51 26.36 22C26.57 21.92 26.78 21.85 27.01 21.91C27.72 22.07 28.04 22.67 27.86 23.51Z" fill="#30A7DA"/>
<path d="M25.2401 23.63C25.2401 23.66 25.2301 23.7 25.2201 23.73C25.0301 24.25 24.74 24.64 24.11 24.63C23.75 24.63 23.4501 24.47 23.1701 24.28C23.1001 24.24 23.0401 24.18 22.9701 24.13L22.9401 24.1H22.9501C23.0501 24.12 23.1401 24.18 23.2201 24.24C23.3901 24.36 23.5701 24.45 23.7701 24.51C24.2901 24.68 24.7901 24.46 25.0301 23.97C25.0801 23.87 25.1201 23.76 25.2001 23.68C25.2101 23.66 25.2201 23.64 25.2401 23.63Z" fill="#279CCF"/>
<path d="M24.92 25.87C24.93 25.88 24.95 25.88 24.96 25.88C24.95 25.9 24.94 25.92 24.92 25.94C24.43 25.96 24.35 25.9 24.21 25.46C23.89 24.42 23.56 23.38 23.24 22.34C23.24 22.33 23.23 22.32 23.23 22.31C23.24 22.31 23.25 22.32 23.25 22.32C23.34 22.36 23.37 22.47 23.4 22.57C23.69 23.52 23.99 24.47 24.28 25.42C24.4 25.81 24.46 25.85 24.87 25.87C24.89 25.87 24.9 25.88 24.92 25.87Z" fill="#2A9ED0"/>
<path d="M26.34 25.78H26.33C25.41 25.09 24.49 24.4 23.57 23.72C23.31 23.52 23.05 23.32 22.79 23.12C22.47 22.95 22.23 22.66 21.89 22.52C21.87 22.52 21.86 22.52 21.84 22.51C21.84 22.5 21.85 22.5 21.86 22.5C21.87 22.49 21.87 22.48 21.88 22.48C22.01 22.45 22.09 22.54 22.17 22.61C22.38 22.77 22.6 22.92 22.81 23.06C22.82 23.06 22.82 23.07 22.83 23.07C22.85 23.09 22.87 23.1 22.89 23.11C23.93 23.91 24.99 24.68 26.04 25.45C26.13 25.52 26.21 25.58 26.28 25.65C26.33 25.69 26.35 25.74 26.34 25.78Z" fill="#2A9ED0"/>
<path d="M26.19 26.34C26.19 26.35 26.18 26.35 26.18 26.36C26.18 26.35 26.17 26.34 26.17 26.33C25.84 25.22 25.52 24.12 25.19 23.01C25.17 22.96 25.12 22.92 25.09 22.88C24.21 22.6 23.34 22.33 22.46 22.06C22.33 22.02 22.2 21.96 22.06 21.96C22.03 21.95 22.01 21.94 21.98 21.93C22 21.92 22.02 21.92 22.04 21.92C22.13 21.89 22.22 21.9 22.31 21.93C23.23 22.26 24.19 22.48 25.11 22.83C25.13 22.84 25.14 22.85 25.15 22.86C25.17 22.88 25.18 22.89 25.2 22.91C25.25 22.98 25.28 23.07 25.31 23.16C25.59 24.09 25.87 25.02 26.15 25.95C26.19 26.07 26.25 26.21 26.19 26.34Z" fill="#2BA0D3"/>
<path d="M24.1201 24.11C24.1201 24.12 24.1101 24.13 24.1001 24.14C24.0901 24.14 24.0801 24.14 24.0701 24.13C24.0901 24.12 24.1001 24.12 24.1201 24.11Z" fill="#30A4D8"/>
<path d="M24.58 21.95C24.57 21.99 24.56 22.04 24.56 22.08C24.41 22.58 24.36 23.1 24.2 23.6C24.2 23.62 24.19 23.65 24.18 23.67C24 24.55 23.83 25.42 23.65 26.3C23.58 26.21 23.62 26.09 23.64 25.98C23.74 25.42 23.86 24.87 23.99 24.31C24.02 24.2 24.02 24.08 24.04 23.96C24.04 23.95 24.04 23.95 24.04 23.95C24.07 23.88 24.09 23.81 24.1 23.71C24.1 23.69 24.1 23.68 24.11 23.66C24.12 23.64 24.12 23.62 24.13 23.6C24.13 23.58 24.14 23.57 24.14 23.55C24.26 23.14 24.31 22.73 24.41 22.32C24.44 22.22 24.46 22.11 24.53 22.02C24.53 22.01 24.54 22 24.55 21.99C24.56 21.98 24.57 21.96 24.58 21.95Z" fill="#2BA0D3"/>
<path d="M24.11 24.08C24.11 24.11 24.1001 24.15 24.0901 24.18C24.0801 24.17 24.0701 24.15 24.0701 24.13C24.0801 24.11 24.09 24.09 24.11 24.08Z" fill="#2A9ED0"/>
<path d="M24.04 24.25C24.07 24.17 24.04 24.08 24.11 24.01C24.16 24.11 24.2 24.2 24.04 24.25Z" fill="#2A9ED0"/>
<path d="M23.98 24.52C23.99 24.49 24 24.46 24 24.43C24.04 24.39 24.07 24.36 24.08 24.32C24.11 24.28 24.12 24.23 24.11 24.17V24.16C24.11 24.14 24.1 24.12 24.08 24.1C24.08 24.08 24.07 24.06 24.05 24.04C24.05 23.92 24.01 23.8 24.15 23.73C24.08 23.83 24.12 23.95 24.1 24.06C24.37 24.3 24.1 24.39 23.98 24.52Z" fill="#2A9ED0"/>
<path d="M26.7301 23.09C26.7201 23.11 26.7201 23.12 26.7101 23.13C26.6501 23.24 26.5301 23.27 26.4201 23.31C24.8701 23.9 23.3301 24.51 21.7801 25.1C21.6701 25.15 21.5601 25.22 21.4501 25.12V25.11C21.8701 25.05 22.2301 24.85 22.6201 24.7C23.9301 24.21 25.2301 23.7 26.5301 23.19C26.5801 23.17 26.6201 23.15 26.6601 23.12C26.6701 23.12 26.6701 23.12 26.6701 23.12C26.6901 23.11 26.7101 23.1 26.7301 23.09Z" fill="#30A7DA"/>
<path d="M24.47 22.48C24.23 23.58 24 24.68 23.76 25.78C23.69 25.69 23.71 25.58 23.73 25.48C23.93 24.57 24.12 23.66 24.31 22.76C24.33 22.65 24.36 22.54 24.47 22.48Z" fill="#30A4D8"/>
<path d="M24.34 23.06C24.28 23.13 24.34 23.24 24.25 23.29C24.11 24 23.98 24.7 23.84 25.41C23.83 25.47 23.82 25.52 23.81 25.58C23.8 25.62 23.79 25.67 23.79 25.71C23.77 25.69 23.76 25.67 23.76 25.65C23.72 25.59 23.73 25.51 23.75 25.44C23.91 24.74 24.02 24.03 24.19 23.33C24.19 23.32 24.19 23.32 24.19 23.31C24.2 23.28 24.21 23.25 24.22 23.22C24.24 23.16 24.26 23.1 24.29 23.04C24.35 22.96 24.35 22.86 24.35 22.77C24.36 22.69 24.3501 22.59 24.4501 22.55C24.4001 22.62 24.4201 22.7 24.4201 22.78C24.4001 22.88 24.47 23 24.34 23.06Z" fill="#2DA2D5"/>
<path d="M25.71 25.54C25.68 25.53 25.66 25.52 25.63 25.51C24.96 25.26 24.27 25.08 23.6 24.86C23.21 24.74 22.8 24.63 22.56 24.25C22.45 24.12 22.46 23.99 22.55 23.86C22.83 23.33 23.36 23.18 23.85 22.97C24.03 22.89 24.23 22.81 24.41 22.74C24.43 22.73 24.44 22.73 24.46 22.72C24.46 22.73 24.45 22.74 24.44 22.75C24.41 22.85 24.31 22.86 24.23 22.89C23.89 23.03 23.54 23.14 23.22 23.32C22.97 23.45 22.75 23.62 22.61 23.88C22.55 24 22.54 24.11 22.63 24.23C22.86 24.54 23.21 24.67 23.55 24.77C24.18 24.96 24.8 25.16 25.43 25.35C25.52 25.39 25.64 25.39 25.69 25.5C25.7 25.51 25.71 25.52 25.71 25.54Z" fill="#2DA2D5"/>
<path d="M24.45 24.4L24.42 24.37C24.22 24.16 23.98 24.01 23.73 23.85C24.04 23.92 24.28 24.08 24.43 24.37C24.44 24.38 24.44 24.39 24.45 24.4Z" fill="#279CCF"/>
<path d="M24.12 24.27C24.06 24.18 24.07 24.08 24.08 23.99C24.15 24.07 24.11 24.18 24.12 24.27Z" fill="#259ACC"/>
<path d="M24.08 24.27C24.08 24.18 24.04 24.07 24.12 23.99C24.13 24.08 24.14 24.18 24.08 24.27Z" fill="#259ACC"/>
<path d="M27.26 26.01C27.22 26.01 27.19 26 27.15 25.98C26.27 25.7 25.4 25.43 24.52 25.16C24.39 25.12 24.26 25.06 24.12 25.06C24.09 25.05 24.07 25.04 24.04 25.03C23.37 24.78 22.68 24.6 22.01 24.38C21.62 24.26 21.21 24.15 20.97 23.77C20.91 23.64 20.92 23.51 20.96 23.38C21.24 22.85 21.77 22.7 22.26 22.49C22.44 22.41 22.64 22.33 22.82 22.26C22.84 22.25 22.85 22.25 22.87 22.24C22.87 22.25 22.86 22.26 22.85 22.27C22.82 22.37 22.72 22.38 22.64 22.41C22.3 22.55 21.95 22.66 21.63 22.84C21.38 22.97 21.16 23.14 21.02 23.4C20.96 23.52 20.95 23.63 21.04 23.75C21.27 24.06 21.62 24.19 21.96 24.29C22.59 24.48 23.21 24.68 23.84 24.87C23.93 24.91 24.05 24.91 24.1 25.02C24.19 24.99 24.28 25 24.37 25.03C25.29 25.36 26.25 25.58 27.17 25.93C27.19 25.94 27.2 25.95 27.21 25.96C27.23 25.98 27.24 25.99 27.26 26.01Z" fill="#EFF8FD"/>
<path d="M24.4801 24.4H24.4401C24.1501 24.29 23.9201 24.11 23.7101 23.89L23.7001 23.88C23.7001 23.87 23.7001 23.87 23.7101 23.86C23.9501 24.03 24.2001 24.2 24.4401 24.37C24.4501 24.38 24.4701 24.39 24.4801 24.4Z" fill="#EFF8FD"/>
<path d="M24.16 24.06C24.16 24.07 24.15 24.08 24.16 24.09C24.16 24.15 24.18 24.22 24.11 24.26C24.05 24.33 24.11 24.44 24.02 24.49C24 24.5 23.98 24.51 23.96 24.51C23.97 24.48 23.98 24.45 23.99 24.42C24.01 24.36 24.03 24.3 24.06 24.24C24.12 24.16 24.12 24.06 24.12 23.97C24.13 23.89 24.12 23.79 24.22 23.75C24.17 23.82 24.19 23.9 24.19 23.98C24.17 24 24.16 24.03 24.16 24.06Z" fill="#EFF8FD"/>
<path d="M24.47 22.48C24.23 23.58 24 24.68 23.76 25.78C23.69 25.69 23.71 25.58 23.73 25.48C23.93 24.57 24.12 23.66 24.31 22.76C24.33 22.65 24.36 22.54 24.47 22.48Z" fill="#EFF8FD"/>
<path d="M30.47 23.5C30.28 24.45 30.08 25.41 29.88 26.37C29.77 26.31 29.83 26.18 29.85 26.09C29.98 25.46 30.12 24.82 30.26 24.19C30.34 23.8 30.43 23.4 30.42 22.99C30.39 22.21 29.86 21.8 29.1 22.03C28.38 22.24 27.71 22.57 27 22.84C25.74 23.32 24.48 23.8 23.22 24.3C23.13 24.34 23.02 24.37 22.92 24.34C22.86 24.45 22.74 24.48 22.63 24.52C21.08 25.11 19.54 25.72 17.99 26.31C17.88 26.36 17.77 26.43 17.66 26.33V26.32C18.08 26.26 18.44 26.06 18.83 25.91C20.14 25.42 21.44 24.91 22.74 24.4C22.79 24.38 22.83 24.36 22.87 24.33C22.88 24.33 22.88 24.33 22.88 24.33C22.9 24.32 22.92 24.31 22.94 24.3C23.63 24.04 24.33 23.78 25.02 23.52C26.34 23.01 27.65 22.5 28.97 21.99C29.18 21.91 29.39 21.84 29.62 21.9C30.33 22.07 30.65 22.66 30.47 23.5Z" fill="#EFF8FD"/>
<path d="M25.8701 25.49H25.86C24.94 24.8 24.0201 24.11 23.1001 23.43C22.8401 23.23 22.5801 23.03 22.3201 22.83C22.3201 22.8 22.3301 22.78 22.3401 22.77C22.3501 22.77 22.35 22.78 22.36 22.78C22.38 22.8 22.4001 22.81 22.4201 22.82C23.4601 23.62 24.5201 24.39 25.5701 25.16C25.6601 25.23 25.7401 25.29 25.8101 25.36C25.8601 25.4 25.8801 25.45 25.8701 25.49Z" fill="white"/>
<path d="M25.59 23.65C25.59 23.68 25.58 23.72 25.57 23.75C25.38 24.27 25.09 24.66 24.46 24.65C24.1 24.65 23.8 24.49 23.52 24.3C23.45 24.26 23.39 24.2 23.32 24.15L23.29 24.12C23.09 23.91 22.85 23.76 22.6 23.6C22.91 23.67 23.15 23.83 23.3 24.12C23.4 24.14 23.49 24.2 23.57 24.26C23.74 24.38 23.92 24.47 24.12 24.53C24.64 24.7 25.14 24.48 25.38 23.99C25.43 23.89 25.47 23.78 25.55 23.7C25.56 23.68 25.57 23.66 25.59 23.65Z" fill="white"/>
<path d="M24.0601 24.25C24.0901 24.17 24.0601 24.08 24.1301 24.01C24.0901 24.09 24.1601 24.19 24.0601 24.25Z" fill="white"/>
<path d="M24.13 24.06C24.13 24.09 24.14 24.12 24.14 24.16V24.17C24.14 24.22 24.13 24.27 24.11 24.32C24.1 24.39 24.06 24.46 24.01 24.52C24.02 24.49 24.03 24.46 24.03 24.43C24.05 24.32 24.07 24.21 24.11 24.1C24.11 24.08 24.1 24.06 24.08 24.04C24.08 23.92 24.04 23.8 24.18 23.73C24.11 23.83 24.15 23.95 24.13 24.06Z" fill="white"/>
<path d="M24.3901 22.8C24.3901 22.82 24.38 22.85 24.37 22.87C24.19 23.75 24.02 24.62 23.84 25.5C23.77 25.41 23.81 25.29 23.83 25.18C23.93 24.62 24.05 24.07 24.18 23.51C24.21 23.4 24.2101 23.28 24.2301 23.16C24.2301 23.15 24.2301 23.15 24.2301 23.15C24.2601 23.08 24.2801 23.01 24.2901 22.91V22.85C24.2901 22.81 24.3001 22.8 24.3201 22.8C24.3201 22.78 24.33 22.77 24.33 22.75C24.38 22.75 24.3901 22.77 24.3901 22.8Z" fill="white"/>
<path d="M25.86 25.38C25.83 25.39 25.7901 25.39 25.7601 25.39C25.4401 25.22 25.2 24.93 24.86 24.79C24.84 24.79 24.8301 24.79 24.8101 24.78C24.7301 24.76 24.6601 24.7 24.5901 24.65C23.8901 24.12 23.1801 23.6 22.4701 23.08C22.4101 23.03 22.3201 23 22.3201 22.9V22.87C22.3301 22.88 22.35 22.89 22.36 22.9C22.96 23.34 23.5401 23.78 24.1301 24.22C24.3701 24.4 24.6 24.58 24.83 24.77C24.84 24.76 24.8401 24.75 24.8501 24.75C24.9801 24.72 25.0601 24.81 25.1401 24.88C25.3501 25.04 25.5701 25.19 25.7801 25.33C25.7901 25.33 25.79 25.34 25.8 25.34C25.82 25.36 25.84 25.37 25.86 25.38Z" fill="#F7FCFE"/>
<path d="M24.54 22.16C24.4 22.87 24.27 23.57 24.13 24.28C24.12 24.34 24.11 24.39 24.1 24.45C24.09 24.49 24.08 24.54 24.08 24.58C23.93 25.08 23.88 25.6 23.72 26.1C23.72 26.12 23.71 26.15 23.7 26.17C23.69 26.13 23.67 26.1 23.65 26.1C23.65 26.08 23.66 26.07 23.66 26.05C23.78 25.64 23.83 25.23 23.93 24.82C23.96 24.72 23.98 24.61 24.05 24.52C24.01 24.46 24.02 24.38 24.04 24.31C24.2 23.61 24.31 22.9 24.48 22.2C24.48 22.19 24.48 22.19 24.48 22.18C24.49 22.15 24.5 22.12 24.51 22.09C24.52 22.1 24.53 22.12 24.54 22.16Z" fill="#F7FCFE"/>
<path d="M25.4601 27.61C25.4701 27.62 25.4901 27.62 25.5001 27.62C25.4901 27.64 25.4801 27.66 25.4601 27.68C24.9701 27.7 24.8901 27.64 24.7501 27.2C24.4301 26.16 24.1001 25.12 23.7801 24.08C23.7801 24.07 23.7701 24.06 23.7701 24.05C23.4401 22.94 23.1201 21.84 22.7901 20.73C22.7701 20.68 22.7201 20.64 22.6901 20.6C22.7101 20.6 22.7301 20.59 22.7501 20.58C22.7701 20.6 22.78 20.61 22.8 20.63C22.85 20.7 22.8801 20.79 22.9101 20.88C23.1901 21.81 23.4701 22.74 23.7501 23.67C23.7901 23.79 23.8501 23.93 23.7901 24.06C23.8801 24.1 23.9101 24.21 23.9401 24.31C24.2301 25.26 24.5301 26.21 24.8201 27.16C24.9401 27.55 25.0001 27.59 25.4101 27.61C25.4301 27.61 25.4401 27.62 25.4601 27.61Z" fill="#C8DAEA"/>
<path d="M24.1 24.11V24.14L24.09 24.13C24.09 24.12 24.09 24.12 24.1 24.11Z" fill="#C8DAEA"/>
<path d="M47.79 5.22C47.44 2.52 45.02 0.389997 42.3 0.389997C30.17 0.389997 18.05 0.379997 5.92003 0.399997C3.71003 0.409997 2.07001 1.49 0.990005 3.41C0.360005 4.52 0.290001 5.74 0.360001 6.98V41.18C0.360001 41.67 0.37001 42.16 0.37001 42.65C0.44001 42.73 0.400019 42.84 0.410019 42.93C0.390019 43.11 0.440017 43.29 0.470017 43.46C1.02002 46.01 3.32002 47.88 5.94002 47.88H42.21C42.82 47.88 43.42 47.79 44 47.6C46.19 46.87 47.62 44.88 47.79 42.93C47.79 42.84 47.75 42.73 47.83 42.65V6.98C47.83 6.39 47.87 5.81 47.79 5.22Z" fill="#36ADE1"/>
<path d="M24.0701 24.09C24.0801 24.1 24.1 24.1 24.11 24.1C24.1 24.12 24.0901 24.14 24.0701 24.16V24.09Z" fill="#AAC9DC"/>
<path d="M23.98 24.36C23.99 24.33 24 24.3 24 24.27C24.02 24.16 24.04 24.05 24.08 23.94C24.09 23.93 24.09 23.91 24.1 23.9C24.37 24.14 24.1 24.23 23.98 24.36Z" fill="#2BA0D3"/>
<path d="M24.04 24.25C24.07 24.17 24.04 24.08 24.11 24.01C24.16 24.11 24.2 24.2 24.04 24.25Z" fill="#2BA0D3"/>
<path d="M24.05 24.27C24.08 24.21 24.0801 24.15 24.1001 24.1C24.0901 24.09 24.1001 24.08 24.1001 24.07C24.1001 24.04 24.1101 24.01 24.1301 23.99C24.1101 24.09 24.18 24.21 24.05 24.27Z" fill="#30A4D8"/>
<path d="M24.1301 24.32C24.0201 24.19 24.03 24.06 24.12 23.93C24.13 24.06 24.1301 24.19 24.1301 24.32Z" fill="#30A4D8"/>
<path d="M43.34 24.05C43.34 22.88 43.23 21.73 43.02 20.62L34.15 13.21L23.49 27.1L18.67 33.58L28.7 42.21C37.07 40.39 43.34 32.95 43.34 24.05Z" fill="url(#paint0_linear_6_178)"/>
<path d="M15.98 26.27L18.22 33.13C18.38 33.62 18.98 33.79 19.38 33.47L26.08 27.94C26.08 27.94 18.96 25.16 18.96 25.31C18.95 25.47 15.98 26.27 15.98 26.27Z" fill="#AAD2DC"/>
<path d="M33.65 13.09C29.27 14.82 15.15 20.61 9.81002 22.8C9.10002 23.09 9.15002 24.1 9.87002 24.33L15.97 26.27L18.21 33.11C18.3 33.38 18.53 33.56 18.78 33.61C18.99 33.65 19.29 28.07 19.29 28.07C19.29 28.07 25.71 32.83 28.75 35.07C29.5 35.62 30.57 35.21 30.75 34.29C31.66 29.62 33.92 17.94 34.7 13.94C34.81 13.35 34.22 12.86 33.65 13.09Z" fill="white"/>
<path d="M18.78 33.61C18.99 33.65 19.29 28.07 19.29 28.07L29.83 18.17C29.9 18.1 29.82 17.99 29.73 18.04L15.97 26.27L18.21 33.11C18.3 33.39 18.53 33.57 18.78 33.61Z" fill="#D3E3EB"/>
<defs>
<linearGradient id="paint0_linear_6_178" x1="24.9371" y1="21.1834" x2="39.1206" y2="35.367" gradientUnits="userSpaceOnUse">
<stop stop-color="#0070AC"/>
<stop offset="0.3297" stop-color="#007FB9" stop-opacity="0.6318"/>
<stop offset="0.6733" stop-color="#008DC4" stop-opacity="0.2482"/>
<stop offset="0.8957" stop-color="#0092C8" stop-opacity="0"/>
</linearGradient>
</defs>
</svg>
