<svg width="45" height="46" viewBox="0 0 45 46" fill="none" xmlns="http://www.w3.org/2000/svg">
<path d="M0.0700073 45.06C0.370007 44.15 0.660002 43.32 0.940002 42.49C1.95 39.49 2.95001 36.5 3.96001 33.5C4.02001 33.33 3.98999 33.22 3.89999 33.07C1.61999 29.2 0.609993 25.01 0.929993 20.55C1.36999 14.24 4.04999 9.01 8.92999 4.98C13.38 1.3 18.55 -0.350005 24.29 0.0599951C31.23 0.559995 36.77 3.71 40.79 9.38C44.04 13.96 45.31 19.12 44.59 24.69C43.7 31.52 40.28 36.82 34.49 40.54C30.52 43.09 26.13 44.15 21.43 43.87C18.26 43.68 15.28 42.82 12.48 41.32C12.28 41.21 12.12 41.21 11.92 41.27C8.13 42.49 4.33 43.71 0.529999 44.93C0.399999 44.97 0.280007 45 0.0700073 45.06Z" fill="#209E49"/>
<path d="M5.75998 39.45C6.07998 38.49 6.37997 37.61 6.67997 36.73C7.09997 35.49 7.49997 34.24 7.92997 33.01C8.01997 32.76 7.97998 32.57 7.82998 32.36C6.09998 29.91 5.02999 27.19 4.70999 24.21C4.03999 17.98 6.00998 12.69 10.59 8.42C13.11 6.07 16.1 4.56 19.51 4C26.16 2.9 31.87 4.81 36.41 9.8C39.93 13.66 41.44 18.29 41.01 23.49C40.34 31.7 34.23 38.44 26.13 39.91C21.45 40.76 17.07 39.89 13.03 37.36C12.82 37.23 12.66 37.23 12.44 37.3C10.24 38.02 8.03998 38.72 5.75998 39.45Z" fill="white"/>
<path d="M11.86 16.66C11.86 14.67 12.65 13.05 14.13 11.74C14.56 11.36 15.08 11.17 15.66 11.22C16.05 11.25 16.44 11.27 16.83 11.3C17.37 11.33 17.59 11.73 17.76 12.15C18.05 12.87 18.3 13.61 18.57 14.34C18.85 15.09 19.12 15.85 19.41 16.59C19.55 16.94 19.52 17.24 19.35 17.57C19 18.27 18.45 18.81 17.92 19.36C17.42 19.87 17.39 20.04 17.72 20.66C19.33 23.61 21.62 25.85 24.68 27.28C25.8 27.8 25.8 27.81 26.62 26.9C27.1 26.37 27.59 25.83 28.03 25.26C28.4 24.78 28.66 24.7 29.22 24.93C30.08 25.29 30.89 25.76 31.71 26.2C32.37 26.55 33.02 26.91 33.68 27.26C34.07 27.46 34.23 27.74 34.21 28.2C34.15 30.28 33.09 31.64 31.21 32.42C29.81 32.99 28.39 33.15 26.93 32.64C24.98 31.95 23.03 31.28 21.26 30.18C18.99 28.76 17.14 26.88 15.54 24.75C14.43 23.27 13.38 21.74 12.61 20.04C12.11 18.87 11.86 17.72 11.86 16.66Z" fill="#209E49"/>
</svg>
