<svg width="33" height="48" viewBox="0 0 33 48" fill="none" xmlns="http://www.w3.org/2000/svg">
<path d="M16.35 47.05C24.2035 47.05 30.57 46.1188 30.57 44.97C30.57 43.8213 24.2035 42.89 16.35 42.89C8.49652 42.89 2.13 43.8213 2.13 44.97C2.13 46.1188 8.49652 47.05 16.35 47.05Z" fill="#EB6247"/>
<path d="M16.35 0.390015C7.38998 0.390015 0.0899658 7.70001 0.0899658 16.68C0.0899658 27.83 14.64 44.19 15.26 44.88C15.84 45.53 16.86 45.53 17.44 44.88C18.06 44.19 32.61 27.83 32.61 16.68C32.61 7.70001 25.32 0.390015 16.35 0.390015ZM16.35 24.87C11.84 24.87 8.16997 21.19 8.16997 16.67C8.16997 12.15 11.84 8.47002 16.35 8.47002C20.86 8.47002 24.53 12.15 24.53 16.67C24.53 21.19 20.86 24.87 16.35 24.87Z" fill="#2E3192"/>
</svg>
