<svg width="48" height="46" viewBox="0 0 48 46" fill="none" xmlns="http://www.w3.org/2000/svg">
<path d="M41.12 45.51H7.79999C3.99999 45.51 0.919983 42.43 0.919983 38.63V7.69C0.919983 3.89 3.99999 0.809998 7.79999 0.809998H41.12C44.92 0.809998 48 3.89 48 7.69V38.63C48 42.43 44.92 45.51 41.12 45.51Z" fill="white"/>
<path d="M41.6 0.809998C41.6 0.819998 41.6 0.829996 41.6 0.839996C41.55 0.899996 41.48 0.900002 41.41 0.900002C41.33 0.900002 41.25 0.900002 41.17 0.900002C30.08 0.900002 18.99 0.900002 7.89 0.900002C7.75 0.900002 7.61 0.920003 7.48 0.870003C7.46 0.860003 7.45001 0.829998 7.46001 0.809998C18.84 0.809998 30.22 0.809998 41.6 0.809998Z" fill="#B4C9E8"/>
<path d="M0.979996 39.12C0.929996 39.08 0.950002 39.02 0.940002 38.97C0.900002 38.91 0.949994 38.84 0.899994 38.78C0.899994 28.27 0.899994 17.75 0.899994 7.24001C0.969994 7.18001 0.900001 7.07001 0.970001 7.01001C1.07 7.12001 1.04 7.26001 1.02 7.39001C1 7.58001 0.990005 7.78001 0.990005 7.97001C0.990005 17.99 0.990005 28.01 0.990005 38.03C0.990005 38.26 0.990004 38.49 1.02 38.72C1.06 38.86 1.09 39 0.979996 39.12Z" fill="#BED0EB"/>
<path d="M48 7.36C48 17.82 48 28.29 48 38.75C47.97 38.76 47.95 38.75 47.94 38.73C47.88 38.6 47.9 38.47 47.9 38.34C47.9 29.93 47.9 21.51 47.9 13.1C47.9 11.31 47.9 9.51 47.9 7.72C47.9 7.61 47.88 7.49 47.94 7.39C47.95 7.35 47.97 7.35 48 7.36Z" fill="#3A89C9"/>
<path d="M31.63 45.48C26.35 45.48 21.07 45.48 15.78 45.48C15.77 45.45 15.78 45.43 15.8 45.42C15.89 45.38 15.98 45.38 16.08 45.38C21.16 45.38 26.24 45.38 31.33 45.38C31.42 45.38 31.52 45.37 31.61 45.42C31.63 45.43 31.64 45.46 31.63 45.48Z" fill="#7398C8"/>
<path d="M39.46 45.48C38.12 45.48 36.78 45.48 35.43 45.48C35.42 45.45 35.43 45.43 35.45 45.42C35.54 45.38 35.63 45.38 35.73 45.38C36.87 45.38 38.02 45.38 39.16 45.38C39.25 45.38 39.35 45.37 39.44 45.41C39.46 45.43 39.47 45.46 39.46 45.48Z" fill="#2E7AB6"/>
<path d="M15.56 45.48C14.9 45.48 14.23 45.48 13.57 45.48C13.56 45.45 13.57 45.43 13.59 45.42C13.63 45.39 13.68 45.39 13.73 45.39C14.3 45.39 14.86 45.38 15.43 45.4C15.47 45.4 15.5 45.41 15.54 45.43C15.56 45.44 15.57 45.46 15.56 45.48Z" fill="#F9FAFD"/>
<path d="M35.43 45.45C35.43 45.46 35.43 45.47 35.43 45.49C34.79 45.49 34.15 45.49 33.51 45.49C33.5 45.46 33.51 45.44 33.53 45.43C33.6 45.39 33.68 45.4 33.75 45.4C34.23 45.4 34.7 45.4 35.18 45.4C35.27 45.39 35.36 45.38 35.43 45.45Z" fill="#4C84BC"/>
<path d="M33.51 45.45C33.51 45.46 33.51 45.47 33.51 45.49C32.88 45.49 32.26 45.49 31.63 45.49C31.63 45.48 31.63 45.47 31.63 45.46C31.69 45.39 31.78 45.4 31.86 45.4C32.34 45.4 32.81 45.4 33.29 45.4C33.36 45.39 33.44 45.38 33.51 45.45Z" fill="#5F8DC2"/>
<path d="M10.62 45.48C10.06 45.48 9.49001 45.48 8.93001 45.48C8.92001 45.45 8.93001 45.43 8.95001 45.42C9.00001 45.39 9.06002 45.39 9.11002 45.39C9.55002 45.39 10 45.39 10.44 45.39C10.5 45.39 10.55 45.39 10.6 45.42C10.63 45.44 10.64 45.46 10.62 45.48Z" fill="#3B91CE"/>
<path d="M41.07 45.48C40.78 45.48 40.49 45.48 40.2 45.48C40.19 45.46 40.19 45.44 40.22 45.42C40.5 45.36 40.77 45.36 41.05 45.42C41.08 45.44 41.09 45.46 41.07 45.48Z" fill="#5B8BC1"/>
<path d="M13.56 45.45C13.56 45.46 13.56 45.47 13.56 45.49C13.28 45.49 13.01 45.49 12.73 45.49C12.72 45.46 12.73 45.44 12.75 45.43C13.02 45.38 13.29 45.34 13.56 45.45Z" fill="#D2E1F4"/>
<path d="M41.07 45.48C41.07 45.47 41.07 45.46 41.07 45.45C41.34 45.34 41.61 45.38 41.88 45.42C41.9 45.43 41.91 45.46 41.9 45.48C41.63 45.48 41.35 45.48 41.07 45.48Z" fill="#7197C8"/>
<path d="M40.21 45.45C40.21 45.46 40.21 45.47 40.21 45.49C39.96 45.49 39.71 45.49 39.46 45.49C39.46 45.48 39.46 45.47 39.46 45.45C39.71 45.35 39.96 45.35 40.21 45.45Z" fill="#4380BA"/>
<path d="M12.73 45.45C12.73 45.46 12.73 45.47 12.73 45.48C12.52 45.48 12.3 45.48 12.09 45.48C12.08 45.45 12.09 45.43 12.11 45.42C12.32 45.38 12.53 45.34 12.73 45.45Z" fill="#B9CFEB"/>
<path d="M10.62 45.48C10.62 45.47 10.62 45.46 10.62 45.44C10.81 45.34 11.01 45.37 11.2 45.42C11.22 45.43 11.23 45.45 11.22 45.48C11.03 45.48 10.83 45.48 10.62 45.48Z" fill="#529BD3"/>
<path d="M8.24999 45.48C8.08999 45.48 7.91998 45.48 7.75998 45.48C7.74998 45.46 7.74999 45.44 7.76999 45.42C7.91999 45.37 8.07998 45.37 8.22998 45.42C8.25998 45.44 8.25999 45.46 8.24999 45.48Z" fill="#B5CBEA"/>
<path d="M11.23 45.48C11.23 45.47 11.23 45.46 11.23 45.45C11.37 45.36 11.52 45.38 11.66 45.43C11.68 45.44 11.69 45.46 11.68 45.49C11.53 45.48 11.38 45.48 11.23 45.48Z" fill="#79ABDA"/>
<path d="M11.68 45.48C11.68 45.47 11.68 45.46 11.68 45.45C11.82 45.36 11.96 45.36 12.09 45.45C12.09 45.46 12.09 45.47 12.09 45.48C11.95 45.48 11.82 45.48 11.68 45.48Z" fill="#9FBCE3"/>
<path d="M7.75999 45.45C7.75999 45.46 7.75999 45.47 7.75999 45.48C7.62999 45.48 7.51 45.48 7.38 45.48C7.38 45.47 7.38 45.46 7.38 45.44C7.51 45.36 7.63999 45.36 7.75999 45.45Z" fill="#DBE5F5"/>
<path d="M8.25 45.48C8.25 45.47 8.25 45.46 8.25 45.45C8.35 45.36 8.46001 45.38 8.57001 45.42C8.59001 45.43 8.6 45.45 8.59 45.48C8.48 45.48 8.37 45.48 8.25 45.48Z" fill="#8FB3DE"/>
<path d="M8.59 45.48C8.59 45.47 8.59 45.46 8.59 45.45C8.7 45.37 8.81999 45.37 8.92999 45.45C8.92999 45.46 8.92999 45.47 8.92999 45.49C8.81999 45.48 8.7 45.48 8.59 45.48Z" fill="#65A1D7"/>
<path d="M15.56 45.48C15.56 45.47 15.56 45.46 15.56 45.45C15.6 45.4 15.65 45.4 15.7 45.41C15.73 45.42 15.76 45.43 15.78 45.46C15.78 45.47 15.78 45.48 15.79 45.49C15.71 45.48 15.63 45.48 15.56 45.48Z" fill="#CFDAEC"/>
<path d="M48 39.16C47.99 39.16 47.98 39.16 47.97 39.16C47.9 39.1 47.91 39.02 47.95 38.95C47.97 38.93 47.98 38.92 48.01 38.94C48 39.01 48 39.08 48 39.16Z" fill="#B9CDEA"/>
<path d="M41.9 45.48C41.9 45.47 41.9 45.46 41.9 45.45C41.97 45.38 42.05 45.38 42.12 45.45C42.12 45.46 42.12 45.47 42.12 45.48C42.05 45.48 41.98 45.48 41.9 45.48Z" fill="#B3C4E0"/>
<path d="M0.910004 38.78C0.970004 38.83 0.939997 38.91 0.949997 38.97C0.939997 38.97 0.930004 38.97 0.910004 38.97C0.910004 38.91 0.910004 38.85 0.910004 38.78Z" fill="#DCE5F5"/>
<path d="M48 38.93C47.99 38.93 47.98 38.94 47.97 38.93C47.91 38.87 47.91 38.8 47.97 38.74C47.98 38.74 47.99 38.74 48.01 38.74C48 38.81 48 38.87 48 38.93Z" fill="#6FA0D5"/>
<path d="M48 7.35999C47.99 7.35999 47.98 7.35999 47.96 7.35999C47.91 7.30999 47.91 7.24999 47.94 7.17999C47.96 7.15999 47.97 7.15999 47.99 7.16999C48 7.22999 48 7.28999 48 7.35999Z" fill="#78A3D6"/>
<path d="M48 7.17001C47.99 7.17001 47.98 7.17001 47.97 7.17001C47.91 7.11001 47.91 7.05001 47.97 6.98001C47.98 6.98001 47.99 6.98001 48 6.98001C48 7.04001 48 7.10001 48 7.17001Z" fill="#C8D5ED"/>
<path d="M7.46002 0.809998C7.46002 0.819998 7.46002 0.829996 7.46002 0.839996C7.40002 0.899996 7.34002 0.899996 7.27002 0.839996C7.27002 0.829996 7.27002 0.819998 7.27002 0.809998C7.34002 0.809998 7.40002 0.809998 7.46002 0.809998Z" fill="#D7E1F3"/>
<path d="M7.27 0.839996C7.33 0.839996 7.40001 0.839996 7.46001 0.839996C7.57001 0.839996 7.69 0.839996 7.8 0.839996C18.92 0.839996 30.05 0.839996 41.17 0.839996C41.31 0.839996 41.46 0.839996 41.6 0.839996C43.29 0.949996 44.76 1.59 45.97 2.77C46.93 3.7 47.55 4.83 47.84 6.14C47.9 6.42 47.95 6.69 47.96 6.98C47.96 7.04 47.96 7.1 47.96 7.17C47.96 7.23 47.96 7.3 47.96 7.36C47.96 7.49 47.96 7.62 47.96 7.75C47.96 18.03 47.96 28.32 47.96 38.6C47.96 38.65 47.96 38.7 47.96 38.75C47.96 38.81 47.96 38.88 47.96 38.94C47.96 39.01 47.96 39.09 47.96 39.16C47.95 39.53 47.88 39.89 47.78 40.25C47.71 40.49 47.69 40.74 47.59 40.97C47.57 40.97 47.59 40.95 47.58 40.96C47.57 40.97 47.58 40.98 47.59 40.99C47.59 41.03 47.59 41.08 47.55 41.11C47.44 41.29 47.39 41.49 47.29 41.67C46.65 42.91 45.71 43.85 44.49 44.52C43.65 44.98 42.76 45.24 41.81 45.33C41.72 45.34 41.62 45.34 41.53 45.34C32.96 45.34 24.4 45.34 15.83 45.34C15.7 45.34 15.57 45.33 15.45 45.34C15.53 45.36 15.65 45.3 15.71 45.43C15.66 45.43 15.61 45.44 15.56 45.44C14.9 45.41 14.23 45.43 13.57 45.44C13.29 45.42 13.02 45.43 12.74 45.44C12.53 45.44 12.31 45.44 12.1 45.44C11.96 45.44 11.82 45.44 11.69 45.44C11.54 45.44 11.39 45.44 11.24 45.44C11.04 45.44 10.84 45.44 10.64 45.44C10.07 45.44 9.51 45.44 8.94 45.44C8.83 45.44 8.71001 45.44 8.60001 45.44C8.49001 45.44 8.36999 45.44 8.25999 45.44C8.09999 45.44 7.93 45.44 7.77 45.44C7.64 45.43 7.52 45.42 7.39 45.44C7.05 45.41 6.7 45.41 6.36 45.37C5.28 45.24 4.31001 44.85 3.46001 44.19C2.15001 43.17 1.37001 41.84 1.10001 40.2C1.04001 39.84 1.04001 39.48 0.990005 39.12C1.01001 38.89 0.970001 38.66 0.970001 38.43C0.970001 28.18 0.970001 17.94 0.970001 7.69C0.970001 7.46 1.02001 7.24 0.990005 7.01C1.07001 6.27 1.17001 5.54 1.46001 4.85C2.13001 3.2 3.3 2.04 4.95 1.37C5.69 1.08 6.47 0.909996 7.27 0.839996Z" fill="#0F80C4"/>
<path d="M15.7 45.44C15.62 45.38 15.52 45.42 15.43 45.41C15.39 45.4 15.34 45.41 15.3 45.4C15.27 45.4 15.24 45.38 15.24 45.34C15.24 45.3 15.27 45.29 15.31 45.29C15.37 45.29 15.42 45.29 15.48 45.29C22.08 45.29 28.67 45.29 35.27 45.29C37.37 45.29 39.47 45.29 41.57 45.29C42.05 45.29 42.51 45.2 42.97 45.08C43.48 44.95 43.97 44.75 44.43 44.5C44.8 44.3 45.16 44.06 45.49 43.8C45.68 43.65 45.85 43.49 46.02 43.33C46.41 42.94 46.76 42.5 47.04 42.02C47.21 41.73 47.37 41.43 47.49 41.11C47.49 41.1 47.5 41.08 47.51 41.08C47.55 41.06 47.54 41.1 47.55 41.12C47.42 41.62 47.2 42.07 46.93 42.5C46 43.98 44.68 44.92 42.98 45.31C42.7 45.38 42.41 45.41 42.13 45.44C42.06 45.44 41.98 45.44 41.91 45.44C41.63 45.44 41.36 45.44 41.08 45.44C40.79 45.44 40.5 45.44 40.21 45.44C39.96 45.44 39.71 45.44 39.46 45.44C38.12 45.44 36.77 45.44 35.43 45.44C34.79 45.44 34.15 45.44 33.51 45.44C32.88 45.44 32.26 45.44 31.63 45.44C31.28 45.44 30.93 45.44 30.58 45.44C25.72 45.44 20.85 45.44 15.99 45.44C15.92 45.44 15.85 45.44 15.78 45.45C15.75 45.45 15.73 45.44 15.7 45.44Z" fill="#0073B2"/>
<path d="M47.59 41C47.57 40.99 47.55 40.98 47.57 40.95C47.57 40.95 47.59 40.96 47.59 40.97C47.6 40.99 47.59 41 47.59 41Z" fill="#0073B2"/>
<path d="M9.46001 39.8C9.41001 39.78 9.35 39.76 9.3 39.74C9.16 39.66 9.15 39.57 9.28 39.46C9.33 39.42 9.37999 39.39 9.42999 39.35C9.94999 39.02 10.47 38.67 10.97 38.3C11.73 37.72 12.42 37.06 12.96 36.26C13.18 35.94 13.37 35.6 13.5 35.23C13.7 34.67 13.61 34.16 13.26 33.68C13.11 33.47 12.93 33.29 12.75 33.1C11.81 32.15 10.95 31.13 10.18 30.03C8.73999 27.97 7.69999 25.72 7.14999 23.26C6.97999 22.5 6.85999 21.73 6.78999 20.96C6.71999 20.27 6.69 19.58 6.7 18.89C6.71 17.99 6.77999 17.09 6.89999 16.19C7.11999 14.5 7.57 12.88 8.24 11.31C8.92 9.71999 9.81999 8.25 10.87 6.87C12.58 4.62 14.68 2.82999 17.1 1.37999C17.28 1.26999 17.49 1.2 17.64 1.05C17.66 1.02 17.7 1.01999 17.73 1.01999C17.77 1.01999 17.82 1.01999 17.86 1.01999C25.63 1.01999 33.4 1.01999 41.17 1.01999C42.11 1.01999 43.02 1.17999 43.88 1.55999C45.91 2.47999 47.18 4.03999 47.67 6.20999C47.78 6.67999 47.81 7.15999 47.81 7.64999C47.81 12.61 47.81 17.57 47.81 22.53C47.81 25.88 47.81 29.23 47.81 32.58C47.81 32.66 47.84 32.76 47.73 32.81C47.54 33.05 47.32 33.26 47.1 33.48C45.7 34.8 44.16 35.94 42.48 36.88C41.32 37.53 40.1 38.06 38.85 38.52C37.28 39.09 35.68 39.51 34.03 39.78C33.26 39.9 32.49 39.99 31.71 40.03C31.15 40.06 30.58 40.11 30.02 40.1C28.07 40.07 26.15 39.86 24.25 39.4C23.29 39.17 22.34 38.91 21.41 38.58C20.73 38.34 20.06 38.36 19.38 38.54C18.29 38.83 17.22 39.18 16.13 39.47C15.1 39.74 14.06 39.92 13 40.01C11.9 40.1 10.81 40.04 9.72 39.87C9.63 39.87 9.53 39.87 9.46001 39.8Z" fill="#FDFDFD"/>
<path d="M9.46002 39.8C9.77002 39.84 10.08 39.89 10.39 39.93C11.09 40.01 11.8 40.04 12.51 40.01C13.21 39.98 13.9 39.9 14.58 39.78C15.41 39.64 16.22 39.43 17.03 39.19C17.87 38.94 18.71 38.69 19.56 38.47C20.15 38.32 20.74 38.32 21.32 38.52C22.12 38.79 22.93 39.04 23.75 39.24C24.91 39.53 26.09 39.75 27.28 39.89C28.3 40.01 29.33 40.07 30.36 40.06C31.33 40.05 32.29 39.98 33.25 39.86C35.97 39.51 38.56 38.74 41.05 37.58C42.88 36.73 44.56 35.65 46.1 34.34C46.62 33.9 47.13 33.44 47.59 32.94C47.63 32.89 47.68 32.85 47.75 32.84C47.8 32.85 47.83 32.87 47.83 32.93C47.83 32.99 47.83 33.04 47.83 33.1C47.83 34.93 47.84 36.76 47.83 38.59C47.82 39.52 47.63 40.42 47.24 41.28C46.98 41.85 46.66 42.38 46.25 42.84C45.75 43.41 45.18 43.9 44.5 44.27C43.99 44.55 43.46 44.76 42.9 44.91C42.66 44.97 42.41 45.02 42.17 45.05C41.65 45.12 41.14 45.12 40.62 45.12C32.19 45.12 23.75 45.12 15.32 45.12C15.16 45.12 15.03 45.09 14.9 44.99C14.76 44.89 14.63 44.77 14.49 44.66C14.21 44.42 13.94 44.15 13.69 43.87C13.61 43.76 13.49 43.7 13.39 43.61C13.26 43.51 13.15 43.4 13.05 43.27C13 43.17 12.9 43.15 12.83 43.08C12.68 42.97 12.56 42.85 12.45 42.7C12.39 42.62 12.3 42.58 12.23 42.51C12.06 42.38 11.91 42.22 11.77 42.06C11.69 41.95 11.57 41.89 11.47 41.8C11.31 41.68 11.17 41.54 11.05 41.39C10.96 41.31 10.88 41.24 10.79 41.16C10.65 41.05 10.52 40.93 10.41 40.78C10.37 40.7 10.28 40.68 10.23 40.63C10.12 40.56 10.03 40.47 9.96002 40.37C9.93002 40.3 9.87001 40.29 9.81001 40.26C9.69001 40.18 9.59002 40.07 9.50002 39.96C9.48002 39.9 9.47002 39.85 9.46002 39.8Z" fill="#0073B2"/>
<path d="M13.67 43.86C13.95 44.11 14.21 44.37 14.47 44.65C14.41 44.65 14.38 44.62 14.34 44.58C14.12 44.36 13.91 44.15 13.69 43.93C13.67 43.92 13.63 43.9 13.67 43.86Z" fill="#4191C9"/>
<path d="M11.75 42.06C11.92 42.2 12.07 42.35 12.21 42.51C12.16 42.51 12.13 42.49 12.1 42.46C11.99 42.35 11.87 42.23 11.76 42.12C11.74 42.1 11.73 42.08 11.75 42.06Z" fill="#348CC6"/>
<path d="M11.04 41.38C11.19 41.5 11.33 41.64 11.46 41.79C11.4 41.79 11.37 41.76 11.33 41.72C11.24 41.63 11.15 41.54 11.05 41.44C11.04 41.43 11 41.41 11.04 41.38Z" fill="#358CC6"/>
<path d="M10.4 40.78C10.54 40.89 10.67 41.02 10.78 41.16C10.6 41.1 10.51 40.93 10.38 40.81C10.38 40.8 10.39 40.79 10.4 40.78Z" fill="#358CC6"/>
<path d="M12.43 42.7C12.57 42.81 12.7 42.94 12.81 43.08C12.63 43.02 12.54 42.85 12.41 42.73C12.41 42.72 12.43 42.71 12.43 42.7Z" fill="#348CC6"/>
<path d="M13.03 43.26C13.16 43.36 13.27 43.47 13.37 43.6C13.23 43.54 13.07 43.38 13.03 43.26Z" fill="#318BC5"/>
<path d="M9.5 39.95C9.61 40.04 9.72 40.14 9.81 40.25C9.65 40.2 9.55 40.1 9.5 39.95Z" fill="#328CC6"/>
<path d="M9.95001 40.36C10.05 40.43 10.14 40.52 10.22 40.62C10.08 40.58 9.98001 40.51 9.95001 40.36Z" fill="#358CC6"/>
<path d="M16.84 22.55C16.94 22.55 17.01 22.55 17.07 22.55C18.43 22.55 19.79 22.55 21.15 22.55C21.34 22.55 21.53 22.55 21.71 22.6C22.18 22.71 22.48 22.98 22.56 23.46C22.63 23.91 22.56 24.33 22.18 24.63C21.95 24.81 21.68 24.89 21.39 24.89C20.91 24.9 20.42 24.9 19.94 24.9C19.04 24.9 18.13 24.9 17.23 24.9C16.73 24.9 16.23 24.9 15.73 24.91C15.32 24.92 14.91 24.91 14.51 24.85C13.84 24.75 13.43 24.34 13.34 23.67C13.3 23.36 13.4 23.08 13.54 22.81C13.68 22.56 13.86 22.35 14.04 22.13C15.58 20.18 17.11 18.23 18.65 16.28C18.68 16.25 18.7 16.21 18.73 16.18C18.8 16.08 18.77 16.02 18.66 15.99C18.62 15.98 18.59 15.98 18.55 15.98C17.4 15.98 16.25 15.98 15.11 15.98C14.87 15.98 14.64 15.95 14.4 15.91C13.89 15.81 13.52 15.38 13.51 14.87C13.51 14.36 13.86 13.92 14.38 13.81C14.64 13.75 14.9 13.73 15.16 13.73C16.94 13.73 18.72 13.73 20.5 13.73C20.71 13.73 20.93 13.73 21.14 13.77C21.28 13.79 21.43 13.82 21.56 13.87C22.19 14.1 22.47 14.69 22.25 15.33C22.14 15.66 21.96 15.95 21.76 16.24C21.3 16.91 20.78 17.53 20.28 18.16C19.19 19.54 18.1 20.91 17.02 22.29C16.97 22.35 16.9 22.43 16.84 22.55Z" fill="#0E80C4"/>
<path d="M31.18 20.73C31.18 21.75 31.18 22.76 31.18 23.78C31.18 24.31 30.87 24.75 30.39 24.93C29.85 25.13 29.31 25.01 28.95 24.6C28.91 24.55 28.87 24.5 28.83 24.46C28.72 24.35 28.64 24.34 28.51 24.42C28.46 24.45 28.41 24.49 28.36 24.53C27.51 25.19 26.57 25.35 25.54 25.08C24.95 24.92 24.4 24.66 23.93 24.26C23.37 23.78 23.01 23.17 22.79 22.48C22.55 21.74 22.45 20.98 22.5 20.2C22.61 18.7 23.33 17.57 24.63 16.81C25.03 16.58 25.45 16.4 25.9 16.31C26.71 16.16 27.46 16.33 28.15 16.76C28.29 16.85 28.43 16.95 28.56 17.06C28.69 17.16 28.68 17.2 28.82 17.03C28.89 16.95 28.96 16.87 29.04 16.8C29.51 16.31 30.39 16.37 30.83 16.81C31.06 17.04 31.18 17.31 31.19 17.63C31.2 18.01 31.2 18.38 31.2 18.76C31.18 19.41 31.18 20.07 31.18 20.73Z" fill="#0E80C4"/>
<path d="M35.77 20.97C35.76 20 35.93 19.17 36.36 18.41C37.03 17.23 38.04 16.54 39.38 16.35C40.34 16.22 41.27 16.33 42.14 16.77C43.33 17.36 44.05 18.33 44.34 19.61C44.55 20.55 44.51 21.48 44.19 22.39C43.68 23.84 42.65 24.72 41.17 25.07C40.05 25.34 38.95 25.24 37.92 24.68C36.77 24.05 36.08 23.08 35.84 21.79C35.78 21.49 35.76 21.18 35.77 20.97Z" fill="#0E80C4"/>
<path d="M34.87 18.91C34.87 20.49 34.87 22.07 34.87 23.65C34.87 24.01 34.76 24.33 34.53 24.6C34.09 25.1 33.27 25.19 32.78 24.77C32.48 24.52 32.34 24.18 32.31 23.8C32.3 23.73 32.31 23.66 32.31 23.59C32.31 20.56 32.31 17.53 32.31 14.5C32.31 14.27 32.3 14.04 32.34 13.81C32.46 13.23 32.89 12.85 33.48 12.82C33.66 12.81 33.83 12.83 34 12.87C34.51 13.01 34.83 13.44 34.86 14C34.86 14.09 34.86 14.18 34.86 14.26C34.87 15.81 34.87 17.36 34.87 18.91Z" fill="#0E80C4"/>
<path d="M25.07 20.71C25.07 20.34 25.16 19.91 25.38 19.51C25.89 18.59 26.95 18.48 27.64 18.84C27.94 19 28.16 19.23 28.31 19.53C28.72 20.35 28.73 21.18 28.28 21.98C27.65 23.09 26.09 23.09 25.41 22.05C25.17 21.66 25.06 21.24 25.07 20.71Z" fill="white"/>
<path d="M41.87 20.74C41.87 21.23 41.76 21.69 41.48 22.09C40.79 23.07 39.37 23.04 38.72 22.08C38.38 21.57 38.28 21.01 38.34 20.41C38.39 20 38.51 19.61 38.77 19.29C39.16 18.8 39.69 18.61 40.3 18.67C41.02 18.74 41.46 19.18 41.71 19.84C41.82 20.12 41.87 20.43 41.87 20.74Z" fill="white"/>
</svg>
