<svg width="21" height="21" viewBox="0 0 21 21" fill="none" xmlns="http://www.w3.org/2000/svg">
<path fill-rule="evenodd" clip-rule="evenodd" d="M20.35 9.43C20.02 4.39 15.95 0.359997 10.87 0.0199966V0H10.19H9.51V0.0199966C4.43 0.349997 0.36 4.38 0.03 9.43H0V10.1V10.77H0.02C0.35 15.81 4.42 19.84 9.5 20.17V20.19H10.18H10.86V20.17C15.94 19.84 20.01 15.81 20.34 10.77H20.36V10.1V9.43H20.35ZM6.38 2.2C5.72 3.06 5.18 4.15 4.78 5.39H2.74C3.63 4.02 4.89 2.91 6.38 2.2ZM2.03 6.74H4.42C4.24 7.59 4.12 8.5 4.09 9.43H1.39C1.46 8.48 1.68 7.58 2.03 6.74ZM1.38 10.78H4.08C4.12 11.72 4.23 12.62 4.41 13.47H2.03C1.68 12.63 1.46 11.73 1.38 10.78ZM2.74 14.82H4.77C5.17 16.06 5.71 17.14 6.37 18.01C4.89 17.3 3.63 16.19 2.74 14.82ZM9.51 18.77C8.11 18.4 6.91 16.91 6.18 14.82H9.51V18.77ZM9.51 13.47H5.8C5.61 12.63 5.49 11.72 5.45 10.78H9.51V13.47ZM9.51 9.43H5.45C5.49 8.48 5.61 7.58 5.8 6.74H9.51V9.43ZM9.51 5.39H6.18C6.91 3.29 8.11 1.80999 9.51 1.43999V5.39ZM17.62 5.39H15.59C15.19 4.15 14.65 3.07 13.99 2.2C15.48 2.91 16.74 4.02 17.62 5.39ZM10.86 1.43999C12.26 1.80999 13.46 3.3 14.19 5.39H10.86V1.43999ZM10.86 6.74H14.57C14.76 7.58 14.88 8.49 14.92 9.43H10.86V6.74ZM10.86 10.78H14.92C14.88 11.73 14.76 12.63 14.57 13.47H10.86V10.78ZM10.86 18.77V14.82H14.19C13.46 16.91 12.26 18.4 10.86 18.77ZM13.99 18C14.65 17.13 15.19 16.05 15.59 14.81H17.62C16.74 16.19 15.48 17.3 13.99 18ZM18.33 13.47H15.94C16.12 12.62 16.24 11.72 16.27 10.78H18.97C18.91 11.73 18.69 12.63 18.33 13.47ZM16.28 9.43C16.24 8.49 16.13 7.59 15.95 6.74H18.34C18.69 7.58 18.92 8.49 18.99 9.43H16.28Z" fill="white"/>
</svg>
