<svg width="18" height="19" viewBox="0 0 18 19" fill="none" xmlns="http://www.w3.org/2000/svg">
<path fill-rule="evenodd" clip-rule="evenodd" d="M16.6725 13.92L13.1725 11.69H13.1525C13.0325 11.61 12.8725 11.57 12.6625 11.57C12.3725 11.57 12.1225 11.67 11.9025 11.88L10.8725 13.01C10.8525 13.04 10.8125 13.06 10.7525 13.08C10.7025 13.1 10.6625 13.11 10.6325 13.11L10.4025 13.06C10.2525 13.03 10.0325 12.93 9.75245 12.78C9.47245 12.62 9.11245 12.38 8.69245 12.05C8.27245 11.72 7.78246 11.25 7.24246 10.65C6.68246 10.06 6.25246 9.55 5.95246 9.1C5.65246 8.65 5.42245 8.27 5.28245 7.96C5.11245 7.61 5.00246 7.3 4.95246 7.02C4.95246 6.98 4.96246 6.93 4.98246 6.87C5.00246 6.81 5.02245 6.77 5.04245 6.74L5.93245 5.78C6.09245 5.61 6.19246 5.39999 6.24246 5.14999C6.29246 4.89999 6.26245 4.67 6.15245 4.47L4.21245 0.509995C4.13245 0.369995 4.02245 0.249994 3.90245 0.149994C3.78245 0.0499939 3.64246 0 3.48246 0C3.26245 0 3.07245 0.0899966 2.90245 0.269997L0.492453 2.87C0.372453 2.99 0.272452 3.13999 0.182452 3.32999C0.102452 3.51999 0.0424522 3.7 0.0224522 3.89C0.0224522 3.92 0.0124556 4.05 0.00245555 4.28C-0.00754445 4.51 0.0124553 4.84 0.0724552 5.25C0.132455 5.66 0.252455 6.15 0.412455 6.72C0.582455 7.29 0.832454 7.92 1.17245 8.62C1.51245 9.31999 1.96245 10.08 2.51245 10.9C3.07245 11.72 3.77245 12.58 4.61245 13.48C5.67245 14.64 6.68245 15.55 7.62245 16.22C8.56245 16.88 9.41245 17.38 10.1525 17.72C10.8925 18.05 11.5225 18.26 12.0425 18.35C12.5525 18.43 12.9325 18.48 13.1525 18.48C13.2525 18.48 13.3325 18.48 13.3925 18.47C13.4525 18.46 13.4925 18.46 13.5025 18.46C13.6725 18.43 13.8425 18.38 14.0225 18.28C14.2025 18.19 14.3425 18.08 14.4525 17.95L16.8625 15.37C17.0725 15.15 17.1525 14.89 17.1125 14.59C17.0725 14.31 16.9225 14.09 16.6725 13.92Z" fill="white"/>
</svg>
